HIERARCHY
ROOT Hips
{
	OFFSET 0.000000 97.167313 0.000000
	CHANNELS 6 Xposition Yposition Zposition Xrotation Yrotation Zrotation
	JOINT Spine
	{
		OFFSET 0.000000 13.784798 0.064400
		CHANNELS 3 Xrotation Yrotation Zrotation
		JOINT Spine1
		{
			OFFSET 0.000000 12.037903 0.404700
			CHANNELS 3 Xrotation Yrotation Zrotation
			JOINT Spine2
			{
				OFFSET 0.000000 17.795601 0.420200
				CHANNELS 3 Xrotation Yrotation Zrotation
				JOINT Neck
				{
					OFFSET 0.000000 39.131302 11.954600
					CHANNELS 3 Xrotation Yrotation Zrotation
					JOINT Head
					{
						OFFSET 0.000000 14.456192 15.627699
						CHANNELS 3 Xrotation Yrotation Zrotation
						JOINT HeadTop_End
						{
							OFFSET 0.000000 15.703506 7.603401
							CHANNELS 3 Xrotation Yrotation Zrotation
							End Site
							{
								OFFSET 0.000000 17.447403 0.000000
							}
						}
					}
				}
				JOINT LeftShoulder
				{
					OFFSET 17.399500 24.608795 1.168800
					CHANNELS 3 Xrotation Yrotation Zrotation
					JOINT LeftArm
					{
						OFFSET 18.980635 5.765305 1.818600
						CHANNELS 3 Xrotation Yrotation Zrotation
						JOINT LeftForeArm
						{
							OFFSET 49.290169 0.000000 0.000000
							CHANNELS 3 Xrotation Yrotation Zrotation
							JOINT LeftHand
							{
								OFFSET 31.562012 0.000000 0.000000
								CHANNELS 3 Xrotation Yrotation Zrotation
								JOINT LeftHandThumb1
								{
									OFFSET 6.133995 -4.388519 7.076070
									CHANNELS 3 Xrotation Yrotation Zrotation
									JOINT LeftHandThumb2
									{
										OFFSET 6.037666 -3.485840 3.485847
										CHANNELS 3 Xrotation Yrotation Zrotation
										JOINT LeftHandThumb3
										{
											OFFSET 6.496506 -3.750763 3.750761
											CHANNELS 3 Xrotation Yrotation Zrotation
											JOINT LeftHandThumb4
											{
												OFFSET 5.616882 -3.242905 3.242910
												CHANNELS 3 Xrotation Yrotation Zrotation
												End Site
												{
													OFFSET -1.254608 7.132141 0.375429
												}
											}
										}
									}
								}
								JOINT LeftHandPinky1
								{
									OFFSET 18.920792 -0.453171 -11.426712
									CHANNELS 3 Xrotation Yrotation Zrotation
									JOINT LeftHandPinky2
									{
										OFFSET 4.919586 0.000000 0.000000
										CHANNELS 3 Xrotation Yrotation Zrotation
										JOINT LeftHandPinky3
										{
											OFFSET 5.233047 0.000000 0.000000
											CHANNELS 3 Xrotation Yrotation Zrotation
											JOINT LeftHandPinky4
											{
												OFFSET 5.571716 0.000000 0.000000
												CHANNELS 3 Xrotation Yrotation Zrotation
												End Site
												{
													OFFSET -3.459808 4.342407 -0.466164
												}
											}
										}
									}
								}
								JOINT LeftHandRing1
								{
									OFFSET 22.726120 -0.094986 -6.500475
									CHANNELS 3 Xrotation Yrotation Zrotation
									JOINT LeftHandRing2
									{
										OFFSET 6.408615 0.000000 0.000000
										CHANNELS 3 Xrotation Yrotation Zrotation
										JOINT LeftHandRing3
										{
											OFFSET 6.150223 0.000000 0.000000
											CHANNELS 3 Xrotation Yrotation Zrotation
											JOINT LeftHandRing4
											{
												OFFSET 6.145386 0.000000 0.000000
												CHANNELS 3 Xrotation Yrotation Zrotation
												End Site
												{
													OFFSET -3.671402 4.923981 -0.202372
												}
											}
										}
									}
								}
								JOINT LeftHandMiddle1
								{
									OFFSET 23.373947 0.000000 0.000001
									CHANNELS 3 Xrotation Yrotation Zrotation
									JOINT LeftHandMiddle2
									{
										OFFSET 6.996567 0.000000 0.000000
										CHANNELS 3 Xrotation Yrotation Zrotation
										JOINT LeftHandMiddle3
										{
											OFFSET 7.015945 0.000000 0.000000
											CHANNELS 3 Xrotation Yrotation Zrotation
											JOINT LeftHandMiddle4
											{
												OFFSET 7.721573 0.000000 0.000000
												CHANNELS 3 Xrotation Yrotation Zrotation
												End Site
												{
													OFFSET -4.651108 6.158463 0.251582
												}
											}
										}
									}
								}
								JOINT LeftHandIndex1
								{
									OFFSET 21.310577 -0.490082 6.209344
									CHANNELS 3 Xrotation Yrotation Zrotation
									JOINT LeftHandIndex2
									{
										OFFSET 7.536453 0.000000 0.000000
										CHANNELS 3 Xrotation Yrotation Zrotation
										JOINT LeftHandIndex3
										{
											OFFSET 7.512344 0.000000 0.000000
											CHANNELS 3 Xrotation Yrotation Zrotation
											JOINT LeftHandIndex4
											{
												OFFSET 10.212402 0.000000 0.000001
												CHANNELS 3 Xrotation Yrotation Zrotation
												End Site
												{
													OFFSET -5.180801 8.690506 1.388433
												}
											}
										}
									}
								}
							}
						}
					}
				}
				JOINT RightShoulder
				{
					OFFSET -17.399500 24.608795 1.168800
					CHANNELS 3 Xrotation Yrotation Zrotation
					JOINT RightArm
					{
						OFFSET -18.980635 5.765305 1.818600
						CHANNELS 3 Xrotation Yrotation Zrotation
						JOINT RightForeArm
						{
							OFFSET -49.290169 0.000000 0.000000
							CHANNELS 3 Xrotation Yrotation Zrotation
							JOINT RightHand
							{
								OFFSET -31.562012 0.000000 0.000000
								CHANNELS 3 Xrotation Yrotation Zrotation
								JOINT RightHandThumb1
								{
									OFFSET -6.133995 -4.388519 7.076070
									CHANNELS 3 Xrotation Yrotation Zrotation
									JOINT RightHandThumb2
									{
										OFFSET -6.037666 -3.485840 3.485847
										CHANNELS 3 Xrotation Yrotation Zrotation
										JOINT RightHandThumb3
										{
											OFFSET -6.496506 -3.750763 3.750761
											CHANNELS 3 Xrotation Yrotation Zrotation
											JOINT RightHandThumb4
											{
												OFFSET -5.616882 -3.242905 3.242910
												CHANNELS 3 Xrotation Yrotation Zrotation
												End Site
												{
													OFFSET 1.254608 7.132141 0.375429
												}
											}
										}
									}
								}
								JOINT RightHandIndex1
								{
									OFFSET -21.310577 -0.490082 6.209344
									CHANNELS 3 Xrotation Yrotation Zrotation
									JOINT RightHandIndex2
									{
										OFFSET -7.536453 0.000000 0.000000
										CHANNELS 3 Xrotation Yrotation Zrotation
										JOINT RightHandIndex3
										{
											OFFSET -7.512344 0.000000 0.000000
											CHANNELS 3 Xrotation Yrotation Zrotation
											JOINT RightHandIndex4
											{
												OFFSET -10.212402 0.000000 0.000001
												CHANNELS 3 Xrotation Yrotation Zrotation
												End Site
												{
													OFFSET 5.180801 8.690506 1.388433
												}
											}
										}
									}
								}
								JOINT RightHandMiddle1
								{
									OFFSET -23.373947 0.000000 0.000001
									CHANNELS 3 Xrotation Yrotation Zrotation
									JOINT RightHandMiddle2
									{
										OFFSET -6.996567 0.000000 0.000000
										CHANNELS 3 Xrotation Yrotation Zrotation
										JOINT RightHandMiddle3
										{
											OFFSET -7.015945 0.000000 0.000000
											CHANNELS 3 Xrotation Yrotation Zrotation
											JOINT RightHandMiddle4
											{
												OFFSET -7.721573 0.000000 0.000000
												CHANNELS 3 Xrotation Yrotation Zrotation
												End Site
												{
													OFFSET 4.651108 6.158463 0.251582
												}
											}
										}
									}
								}
								JOINT RightHandRing1
								{
									OFFSET -22.726120 -0.094986 -6.500475
									CHANNELS 3 Xrotation Yrotation Zrotation
									JOINT RightHandRing2
									{
										OFFSET -6.408615 0.000000 0.000000
										CHANNELS 3 Xrotation Yrotation Zrotation
										JOINT RightHandRing3
										{
											OFFSET -6.150223 0.000000 0.000000
											CHANNELS 3 Xrotation Yrotation Zrotation
											JOINT RightHandRing4
											{
												OFFSET -6.145386 0.000000 0.000000
												CHANNELS 3 Xrotation Yrotation Zrotation
												End Site
												{
													OFFSET 3.671402 4.923981 -0.202372
												}
											}
										}
									}
								}
								JOINT RightHandPinky1
								{
									OFFSET -18.920792 -0.453171 -11.426712
									CHANNELS 3 Xrotation Yrotation Zrotation
									JOINT RightHandPinky2
									{
										OFFSET -4.919586 0.000000 0.000000
										CHANNELS 3 Xrotation Yrotation Zrotation
										JOINT RightHandPinky3
										{
											OFFSET -5.233047 0.000000 0.000000
											CHANNELS 3 Xrotation Yrotation Zrotation
											JOINT RightHandPinky4
											{
												OFFSET -5.571716 0.000000 0.000000
												CHANNELS 3 Xrotation Yrotation Zrotation
												End Site
												{
													OFFSET 3.459808 4.342407 -0.466164
												}
											}
										}
									}
								}
							}
						}
					}
				}
			}
		}
	}
	JOINT LeftUpLeg
	{
		OFFSET 19.899099 -7.885101 -3.429500
		CHANNELS 3 Xrotation Yrotation Zrotation
		JOINT LeftLeg
		{
			OFFSET 1.745560 -36.997807 10.304700
			CHANNELS 3 Xrotation Yrotation Zrotation
			JOINT LeftFoot
			{
				OFFSET -1.745558 -29.803308 -13.615400
				CHANNELS 3 Xrotation Yrotation Zrotation
				JOINT LeftToeBase
				{
					OFFSET 1.181900 -18.539904 15.226099
					CHANNELS 3 Xrotation Yrotation Zrotation
					JOINT LeftToe_End
					{
						OFFSET -0.863701 1.402801 16.534700
						CHANNELS 3 Xrotation Yrotation Zrotation
						End Site
						{
							OFFSET 0.000000 16.616566 0.000000
						}
					}
				}
			}
		}
	}
	JOINT RightUpLeg
	{
		OFFSET -19.899099 -7.885101 -3.429500
		CHANNELS 3 Xrotation Yrotation Zrotation
		JOINT RightLeg
		{
			OFFSET -1.745560 -36.997807 10.304700
			CHANNELS 3 Xrotation Yrotation Zrotation
			JOINT RightFoot
			{
				OFFSET 1.745558 -29.803308 -13.615400
				CHANNELS 3 Xrotation Yrotation Zrotation
				JOINT RightToeBase
				{
					OFFSET -1.181900 -18.539904 15.226099
					CHANNELS 3 Xrotation Yrotation Zrotation
					JOINT RightToe_End
					{
						OFFSET 0.863701 1.402801 16.534700
						CHANNELS 3 Xrotation Yrotation Zrotation
						End Site
						{
							OFFSET 0.000000 16.616566 0.000000
						}
					}
				}
			}
		}
	}
}
MOTION
Frames: 4
Frame Time: 0.033333
-0.844934 76.385056 5.131083 10.984435 -20.297002 8.724346 20.061227 -8.748761 -3.227095 4.267276 -2.265751 -1.715062 4.320603 -2.188968 -1.633769 2.207803 1.626226 1.820273 -27.986686 18.515253 2.240172 -0.000001 0.000000 0.000000 9.806599 -14.958452 -10.187613 -29.625143 4.373770 -48.473835 0.000254 -80.349553 0.000240 -136.764074 10.135331 15.867755 22.170261 -26.955859 21.639059 -18.755175 11.865936 -5.299195 -14.119972 -6.831861 8.163576 0.000001 -0.000000 -0.000003 -0.352232 7.368779 -81.773757 1.697283 4.124424 -44.721842 0.468883 2.298411 -23.057964 0.000003 -0.000000 -0.000001 1.332023 7.030592 -72.173933 3.334059 5.283694 -64.482231 0.663236 2.709499 -27.504106 -0.000002 -0.000001 0.000003 2.715244 7.456497 -71.638705 3.021114 5.123250 -61.032795 0.541639 2.462190 -24.809761 -0.000001 -0.000001 0.000004 2.920502 7.536204 -72.179595 2.284156 4.641122 -52.390027 1.014749 3.297090 -34.205495 0.000002 0.000002 -0.000003 -0.740849 19.336885 19.220958 -1.631446 36.102164 30.408767 0.000006 104.084187 0.000030 -29.791779 -32.691915 7.100497 52.323617 29.641915 -26.183153 42.378325 -24.929950 37.205161 11.676625 -37.605437 -15.022110 0.000001 -0.000001 0.000001 -2.012465 2.205784 21.312794 2.896832 -4.312338 67.768973 3.328299 -4.463950 73.403558 -0.000001 0.000000 -0.000001 13.456655 -8.790203 78.781881 5.608669 -4.559150 101.801422 4.771086 -4.655786 91.403285 0.000002 -0.000000 -0.000004 8.262330 -7.055141 88.116045 5.520487 -4.576610 100.694282 5.148823 -4.631191 96.066481 -0.000001 0.000003 -0.000001 4.707859 -6.937637 92.892048 2.523285 -4.140481 62.703636 1.707101 -3.605264 50.664383 -0.000002 -0.000000 0.000002 -41.064477 16.136908 3.838860 68.280329 0.600961 -0.301774 -15.410467 3.302109 4.580081 -13.348316 1.491211 -5.679912 0.000000 -0.000000 0.000000 -49.442513 2.457525 11.172414 59.340260 0.296848 -7.414973 -19.041027 -3.594702 -4.937294 -0.414107 0.000002 0.000001 -0.000000 0.000000 -0.000000 
-1.024363 76.833557 5.185592 10.898731 -20.867649 8.571200 20.061068 -8.470506 -3.438192 4.268746 -2.167089 -1.724208 4.320601 -2.085596 -1.619196 2.236344 1.613131 1.881382 -27.784957 18.708626 2.395212 0.000000 -0.000000 0.000000 9.816315 -14.853773 -10.057035 -29.646586 4.504902 -48.440811 0.000240 -79.946968 0.000229 -136.745332 10.460931 15.727252 22.073001 -26.917482 21.429787 -18.755177 11.865934 -5.299191 -14.119966 -6.831863 8.163575 -0.000001 0.000003 0.000001 -0.337066 7.387605 -81.946731 1.697280 4.124416 -44.721842 0.470041 2.301110 -23.086683 -0.000004 0.000002 0.000001 1.335399 7.040870 -72.345097 3.334058 5.283695 -64.482231 0.663739 2.710466 -27.514748 -0.000001 -0.000000 0.000007 2.730342 7.465877 -71.808128 3.021114 5.123250 -61.032788 0.541637 2.462190 -24.809759 -0.000001 -0.000001 0.000008 2.935873 7.545004 -72.349291 2.283279 4.640449 -52.379191 1.013693 3.295540 -34.187173 -0.000002 -0.000002 0.000001 -0.719336 19.367671 19.329058 -1.575422 36.475321 30.562265 -0.000051 103.573706 0.000045 -29.639404 -32.385957 7.122534 52.323620 29.641915 -26.183146 42.378325 -24.929953 37.205157 11.676628 -37.605434 -15.022105 -0.000000 -0.000001 -0.000000 -2.012464 2.205785 21.312796 2.896835 -4.312329 67.768966 3.328292 -4.463948 73.403551 -0.000001 0.000002 -0.000001 13.456654 -8.790208 78.781881 5.608659 -4.559149 101.801429 4.771087 -4.655789 91.403285 -0.000002 -0.000000 -0.000006 8.262333 -7.055143 88.116038 5.520487 -4.576615 100.694289 5.148824 -4.631189 96.066481 -0.000002 0.000007 -0.000003 4.707863 -6.937642 92.892048 2.523291 -4.140483 62.703636 1.707109 -3.605262 50.664386 0.000003 0.000003 0.000003 -39.398939 16.422876 3.023087 66.109182 0.529519 -0.033137 -18.300254 3.332304 4.306751 -10.871967 0.980112 -4.748202 -0.000000 0.000000 -0.000000 -48.759023 2.421588 11.301499 58.191368 0.176925 -7.230308 -18.452460 -2.820725 -5.039314 -0.414101 -0.000003 -0.000001 0.000000 0.000000 -0.000000 
-1.197244 77.210342 5.318840 10.809625 -21.439844 8.407281 20.064505 -8.186061 -3.641547 4.271650 -2.068227 -1.733371 4.320607 -1.982084 -1.604813 2.264915 1.600023 1.942501 -27.566449 18.899931 2.555403 -0.000001 -0.000001 -0.000000 9.825980 -14.747208 -9.929046 -29.536412 4.778789 -48.468914 0.000027 -79.765224 -0.000030 -136.676662 10.778362 15.613479 22.010017 -26.887308 21.293099 -18.755174 11.865935 -5.299191 -14.119971 -6.831860 8.163579 -0.000000 0.000002 -0.000002 -0.327260 7.399758 -82.058555 1.697293 4.124424 -44.721838 0.470846 2.303018 -23.106955 0.000001 0.000001 -0.000000 1.338870 7.047915 -72.455678 3.334057 5.283693 -64.482231 0.664010 2.710957 -27.520185 0.000002 0.000005 0.000004 2.740096 7.471905 -71.917500 3.021126 5.123237 -61.032801 0.541633 2.462187 -24.809761 -0.000001 -0.000003 0.000004 2.945814 7.550642 -72.458909 2.282942 4.640179 -52.374959 1.012934 3.294430 -34.174158 0.000000 -0.000000 -0.000001 -0.697284 19.399009 19.437590 -1.366722 36.773305 30.677009 0.000066 103.271449 -0.000038 -29.474168 -32.124613 7.039088 52.323624 29.641918 -26.183149 42.378325 -24.929950 37.205161 11.676628 -37.605434 -15.022110 0.000000 -0.000002 0.000001 -2.012464 2.205784 21.312793 2.896831 -4.312333 67.768973 3.328291 -4.463949 73.403551 -0.000002 -0.000001 0.000001 13.456660 -8.790206 78.781888 5.608661 -4.559146 101.801422 4.771089 -4.655794 91.403279 -0.000001 -0.000000 -0.000007 8.262331 -7.055143 88.116052 5.520487 -4.576611 100.694289 5.148822 -4.631191 96.066474 -0.000001 -0.000000 -0.000005 4.707858 -6.937643 92.892055 2.523285 -4.140482 62.703636 1.707105 -3.605262 50.664383 0.000000 0.000001 0.000004 -37.735470 16.959522 2.436289 63.986640 0.269960 0.272988 -20.786765 3.392528 4.152490 -8.863825 0.652514 -3.964240 -0.000000 0.000000 -0.000000 -48.074105 2.395049 11.421950 57.218178 0.062690 -7.036591 -18.035333 -2.061440 -5.143029 -0.414100 0.000005 -0.000001 0.000000 -0.000001 -0.000000 
-1.360231 77.487389 5.479998 10.714788 -22.009415 8.244692 20.069814 -7.903138 -3.847445 4.274561 -1.970265 -1.742462 4.324521 -1.879201 -1.589644 2.293503 1.586947 2.003596 -27.335694 19.089501 2.731373 -0.000001 0.000000 -0.000000 9.836360 -14.636146 -9.816133 -29.381486 5.156464 -48.504353 0.000079 -79.806150 0.000109 -136.618537 11.054697 15.605509 22.068985 -26.926091 21.423595 -18.755180 11.865934 -5.299193 -14.119967 -6.831866 8.163575 -0.000001 -0.000001 0.000002 -0.336398 7.388434 -81.954402 1.697272 4.124426 -44.721845 0.469947 2.300910 -23.084398 -0.000001 -0.000000 -0.000001 1.328484 7.039084 -72.352658 3.334052 5.283694 -64.482238 0.664081 2.711107 -27.521829 0.000001 -0.000001 0.000005 2.731060 7.466302 -71.815942 3.021102 5.123232 -61.032795 0.541636 2.462188 -24.809762 0.000000 -0.000003 0.000004 2.936576 7.545383 -72.356934 2.282786 4.640064 -52.373156 1.013654 3.295494 -34.186494 -0.000001 0.000001 0.000001 -0.672514 19.432211 19.547781 -1.145057 37.050522 30.776030 -0.000016 103.146839 0.000051 -29.339440 -32.004019 6.872787 52.323620 29.641918 -26.183148 42.378325 -24.929951 37.205164 11.676627 -37.605434 -15.022103 0.000001 -0.000001 0.000001 -2.012466 2.205779 21.312796 2.896835 -4.312333 67.768966 3.328296 -4.463946 73.403544 -0.000000 -0.000003 -0.000001 13.456654 -8.790211 78.781888 5.608664 -4.559146 101.801422 4.771086 -4.655796 91.403279 -0.000000 -0.000003 -0.000009 8.262328 -7.055148 88.116045 5.520491 -4.576608 100.694282 5.148819 -4.631189 96.066481 -0.000002 0.000001 -0.000001 4.707859 -6.937644 92.892055 2.523283 -4.140480 62.703636 1.707102 -3.605267 50.664380 -0.000001 0.000000 0.000001 -36.073695 17.633725 1.919630 61.876494 -0.101227 0.590791 -23.116534 3.458650 4.073464 -7.118273 0.421387 -3.234425 -0.000000 -0.000000 0.000000 -47.462903 2.358514 11.562064 56.480091 0.004199 -6.850434 -17.762361 -1.404464 -5.275896 -0.414100 0.000002 -0.000001 0.000000 0.000000 -0.000000 
